<?xml version="1.0"?>

<svg version="1.0" xmlns="http://www.w3.org/2000/svg" width="264.000000pt" height="61.000000pt" viewBox="0 0 264.000000 61.000000" preserveAspectRatio="xMidYMid meet">
<metadata>
Created by potrace 1.16, written by Peter Selinger 2001-2019
</metadata>
<g transform="translate(0.000000,61.000000) scale(0.100000,-0.100000)" fill="#000000" stroke="none">
<path d="M656 483 c-13 -13 -5 -23 19 -23 l25 0 0 -140 c0 -77 4 -140 8 -140&#xA;4 0 13 5 19 11 8 8 13 8 17 0 4 -6 27 -11 50 -11 77 0 120 71 96 159 -6 22&#xA;-20 47 -33 56 -24 17 -92 20 -102 5 -15 -24 -26 -7 -23 37 l3 47 -36 2 c-21 2&#xA;-40 0 -43 -3z m189 -126 c35 -49 11 -136 -41 -151 -50 -15 -90 71 -65 137 18&#xA;48 77 55 106 14z"></path>
<path d="M1070 474 c0 -8 8 -14 19 -14 23 0 31 -26 31 -101 0 -99 -10 -149&#xA;-31 -149 -11 0 -19 -6 -19 -14 0 -10 15 -14 60 -14 45 0 60 4 60 14 0 8 -9 14&#xA;-20 14 -19 0 -20 7 -20 139 l0 139 -40 0 c-28 1 -40 -3 -40 -14z"></path>
<path d="M0 470 c0 -5 8 -10 18 -10 35 0 42 -21 42 -121 0 -114 -4 -129 -36&#xA;-129 -13 0 -24 -6 -24 -13 0 -10 18 -13 68 -13 66 1 95 16 50 26 -22 6 -23 9&#xA;-25 125 l-1 120 45 -138 c40 -121 48 -138 66 -135 16 2 27 27 60 131 22 70 44&#xA;127 49 127 9 0 1 -207 -9 -222 -2 -5 -13 -8 -24 -8 -10 0 -19 -6 -19 -14 0&#xA;-11 17 -13 73 -12 70 1 94 15 45 26 -19 5 -23 13 -26 53 -3 46 -2 47 25 47 53&#xA;0 70 -10 71 -41 3 -55 5 -60 21 -57 9 1 22 -1 30 -6 8 -5 27 -9 43 -8 18 0 33&#xA;-6 41 -19 6 -10 15 -19 19 -19 5 0 3 9 -4 20 -10 16 -9 23 10 43 32 34 39 81&#xA;16 114 -10 16 -17 31 -16 36 1 4 -5 7 -13 7 -12 0 -12 8 5 50 25 64 16 66 -11&#xA;3 -25 -59 -25 -59 -44 -43 -20 17 -90 -19 -90 -46 0 -21 -39 -30 -82 -19 -23&#xA;5 -24 9 -21 68 3 59 4 62 31 65 49 6 18 22 -42 22 l-58 0 -38 -125 c-22 -68&#xA;-41 -122 -44 -119 -3 2 -21 57 -41 122 l-35 117 -63 3 c-38 2 -62 -1 -62 -8z"></path>
<path d="M954 465 c-4 -9 -2 -21 4 -27 15 -15 44 -1 40 19 -4 23 -36 29 -44 8z"></path>
<path d="M1572 468 c3 -7 12 -13 22 -13 28 0 36 -26 36 -122 0 -108 -4 -123&#xA;-36 -123 -15 0 -24 -6 -24 -15 0 -13 19 -15 128 -13 l127 3 3 64 c2 48 0 62&#xA;-10 59 -7 -3 -14 -21 -16 -41 -4 -48 -20 -59 -84 -55 l-53 3 -3 109 c-3 111 5&#xA;139 36 134 8 -2 17 3 19 10 4 9 -15 12 -72 12 -57 0 -76 -3 -73 -12z"></path>
<path d="M2095 461 c-3 -5 7 -11 22 -13 l28 -3 3 -122 3 -122 -28 -3 c-15 -2&#xA;-27 -7 -26 -13 3 -14 71 -19 86 -6 8 6 18 5 31 -5 38 -28 103 -14 138 30 28&#xA;34 24 117 -8 155 -30 36 -83 49 -128 33 -16 -7 -31 -10 -33 -8 -2 1 0 17 3 34&#xA;5 25 12 32 30 32 13 0 24 5 24 10 0 13 -137 13 -145 1z m215 -111 c15 -15 20&#xA;-33 20 -70 0 -59 -24 -90 -70 -90 -47 0 -70 31 -70 92 0 34 6 58 17 70 22 24&#xA;77 24 103 -2z"></path>
<path d="M925 402 c-11 -11 -4 -22 15 -22 18 0 20 -7 20 -84 0 -80 -1 -85 -22&#xA;-88 -45 -6 -17 -23 42 -25 46 -1 60 1 60 13 0 8 -9 14 -20 14 -18 0 -20 8 -22&#xA;96 l-3 97 -32 2 c-18 1 -35 0 -38 -3z"></path>
<path d="M1229 381 c-24 -25 -29 -37 -29 -81 0 -84 28 -119 96 -120 47 0 94&#xA;30 94 60 0 30 -19 34 -30 5 -25 -66 -130 -41 -130 30 0 11 20 15 83 17 81 3&#xA;82 3 85 31 2 20 -5 35 -27 57 -41 42 -100 42 -142 1z m119 -13 c6 -6 12 -19&#xA;12 -29 0 -17 -8 -19 -61 -19 -57 0 -60 1 -57 22 6 41 68 56 106 26z"></path>
<path d="M1882 394 c-29 -20 -26 -59 3 -59 14 0 19 6 18 21 -2 16 5 24 23 28&#xA;31 8 64 -9 64 -33 0 -26 -18 -37 -70 -44 -108 -14 -105 -127 3 -127 24 0 48 5&#xA;55 12 8 8 15 8 26 -1 8 -7 27 -11 43 -9 25 3 28 7 31 46 2 25 -1 42 -7 42 -6&#xA;0 -11 -13 -11 -30 0 -20 -5 -30 -15 -30 -18 0 -17 -3 -20 88 -3 90 -19 112&#xA;-79 112 -23 0 -52 -7 -64 -16z m108 -126 c0 -31 -11 -45 -40 -56 -33 -12 -70&#xA;2 -70 26 0 32 18 41 98 51 6 0 12 -9 12 -21z"></path>
<path d="M2384 216 c-8 -21 3 -36 27 -36 15 0 20 6 17 22 -4 27 -35 37 -44 14z"></path>
</g>
</svg>